<?xml version="1.0" encoding="iso-8859-1"?>
<!-- Generator: Adobe Illustrator 19.0.0, SVG Export Plug-In . SVG Version: 6.00 Build 0)  -->
<svg version="1.1" id="Layer_1" xmlns="http://www.w3.org/2000/svg" xmlns:xlink="http://www.w3.org/1999/xlink" x="0px" y="0px"
	 viewBox="0 0 512.001 512.001" style="enable-background:new 0 0 512.001 512.001;" xml:space="preserve">
<g>
	<path style="fill:#5F666F;" d="M340.604,95.933V27.178c0-10.576-8.652-19.228-19.228-19.228H171.048
		c-10.575,0-19.228,8.652-19.228,19.228v68.755h188.784V95.933z"/>
	<path style="fill:#5F666F;" d="M340.604,416.067v68.755c0,10.576-8.652,19.228-19.228,19.228H171.048
		c-10.575,0-19.228-8.652-19.228-19.228v-68.755H340.604z"/>
</g>
<path style="fill:#394049;" d="M144.478,416.064c-26.152,0-47.429-21.275-47.429-47.428V143.361
	c0-26.153,21.276-47.428,47.429-47.428h203.468c26.153,0,47.429,21.275,47.429,47.428v225.276c0,26.153-21.276,47.428-47.429,47.428
	H144.478V416.064z"/>
<path style="fill:#252A2F;" d="M144.478,394.008c-13.989,0-25.372-11.382-25.372-25.371V143.361
	c0-13.989,11.382-25.371,25.372-25.371h203.468c13.99,0,25.372,11.382,25.372,25.371v225.276c0,13.989-11.382,25.371-25.372,25.371
	H144.478z"/>
<rect x="395.375" y="178.129" style="fill:#A3A6AA;" width="19.578" height="61.906"/>
<circle style="fill:#FFFFFF;" cx="246.206" cy="256" r="44.226"/>
<circle style="fill:#E06D68;" cx="246.206" cy="176.921" r="20.816"/>
<circle style="fill:#7194D8;" cx="190.299" cy="200.083" r="20.815"/>
<circle style="fill:#F0C650;" cx="167.137" cy="256" r="20.816"/>
<circle style="fill:#4070C9;" cx="190.289" cy="311.917" r="20.816"/>
<path style="fill:#A75450;" d="M225.395,335.079c0.002,11.495,9.32,20.814,20.816,20.812c11.496,0.003,20.814-9.316,20.814-20.814
	c0.001-11.495-9.318-20.814-20.814-20.814C234.714,314.262,225.395,323.581,225.395,335.079z"/>
<circle style="fill:#E06D68;" cx="302.123" cy="311.917" r="20.816"/>
<path style="fill:#4070C9;" d="M325.29,276.817c11.496-0.003,20.814-9.322,20.814-20.817c0-11.498-9.318-20.817-20.816-20.814
	c-11.495-0.003-20.814,9.316-20.814,20.814C304.473,267.495,313.792,276.817,325.29,276.817z"/>
<path style="fill:#D2AD47;" d="M316.848,214.801c8.127-8.131,8.127-21.31-0.003-29.437c-8.128-8.131-21.306-8.131-29.436,0.003
	c-8.129,8.124-8.129,21.304,0,29.434C295.539,222.932,308.717,222.932,316.848,214.801z"/>
<path d="M347.945,110.04H144.478c-18.374,0-33.321,14.949-33.321,33.322v225.276c0,18.374,14.948,33.321,33.321,33.321h203.468
	c18.374,0,33.322-14.948,33.322-33.321V143.361C381.267,124.987,366.319,110.04,347.945,110.04z M365.366,368.637
	c0,9.606-7.816,17.421-17.422,17.421H144.478c-9.606,0-17.421-7.815-17.421-17.421V143.361c0-9.606,7.815-17.422,17.421-17.422
	h203.468c9.606,0,17.422,7.815,17.422,17.422v225.276H365.366z M414.953,170.176h-11.628v-26.815
	c0-30.332-24.516-55.034-54.771-55.363v-60.82C348.554,12.192,336.362,0,321.375,0H171.047c-14.986,0-27.178,12.192-27.178,27.178
	v60.82c-30.256,0.329-54.77,25.031-54.77,55.363v225.276c0,30.331,24.515,55.033,54.77,55.363v60.823
	c0,14.987,12.193,27.178,27.178,27.178h150.329c14.986,0,27.178-12.192,27.178-27.178V424c30.256-0.329,54.771-25.031,54.771-55.363
	V247.985h11.628c4.391,0,7.95-3.559,7.95-7.95v-61.907C422.903,173.735,419.343,170.176,414.953,170.176z M159.77,27.178
	c0-6.218,5.06-11.278,11.278-11.278h150.329c6.218,0,11.278,5.059,11.278,11.278v60.804H159.77V27.178z M332.653,484.822
	c0,6.218-5.059,11.278-11.278,11.278H171.047c-6.218,0-11.278-5.059-11.278-11.278v-60.807h172.883v60.807H332.653z
	 M387.424,368.637c0,21.768-17.71,39.477-39.479,39.477H144.478c-21.769,0-39.479-17.709-39.479-39.477V143.361
	c0-21.768,17.71-39.478,39.479-39.478h203.468c21.769,0,39.479,17.71,39.479,39.478V368.637z M407.002,232.084h-3.677v-46.007h3.677
	V232.084z"/>
<g>
</g>
<g>
</g>
<g>
</g>
<g>
</g>
<g>
</g>
<g>
</g>
<g>
</g>
<g>
</g>
<g>
</g>
<g>
</g>
<g>
</g>
<g>
</g>
<g>
</g>
<g>
</g>
<g>
</g>
</svg>
